<svg height="1918" width="720" xmlns="http://www.w3.org/2000/svg">
<rect height="1918" fill="#555" width="720"></rect>
<text fill="#7f7" font-family="Courier New" font-size="12" xml:space="preserve">
<tspan x="10" y="26">22 megabytes installed</tspan>
<tspan x="10" y="42"></tspan>
<tspan x="10" y="58">node_modules</tspan>
<tspan x="10" y="74">└─┬ social-cms-backend@0.7.2 </tspan>
<tspan x="10" y="90">  ├── async@1.5.2 </tspan>
<tspan x="10" y="106">  ├─┬ body-parser@1.17.1 </tspan>
<tspan x="10" y="122">  │ ├── bytes@2.4.0 </tspan>
<tspan x="10" y="138">  │ ├── content-type@1.0.2 </tspan>
<tspan x="10" y="154">  │ ├─┬ debug@2.6.1 </tspan>
<tspan x="10" y="170">  │ │ └── ms@0.7.2 </tspan>
<tspan x="10" y="186">  │ ├── depd@1.1.0 </tspan>
<tspan x="10" y="202">  │ ├─┬ http-errors@1.6.1 </tspan>
<tspan x="10" y="218">  │ │ ├── inherits@2.0.3 </tspan>
<tspan x="10" y="234">  │ │ ├── setprototypeof@1.0.3 </tspan>
<tspan x="10" y="250">  │ │ └── statuses@1.3.1 </tspan>
<tspan x="10" y="266">  │ ├── iconv-lite@0.4.15 </tspan>
<tspan x="10" y="282">  │ ├─┬ on-finished@2.3.0 </tspan>
<tspan x="10" y="298">  │ │ └── ee-first@1.1.1 </tspan>
<tspan x="10" y="314">  │ ├── qs@6.4.0 </tspan>
<tspan x="10" y="330">  │ ├─┬ raw-body@2.2.0 </tspan>
<tspan x="10" y="346">  │ │ └── unpipe@1.0.0 </tspan>
<tspan x="10" y="362">  │ └─┬ type-is@1.6.15 </tspan>
<tspan x="10" y="378">  │   ├── media-typer@0.3.0 </tspan>
<tspan x="10" y="394">  │   └─┬ mime-types@2.1.15 </tspan>
<tspan x="10" y="410">  │     └── mime-db@1.27.0 </tspan>
<tspan x="10" y="426">  ├── breeze-mongodb@0.0.6 </tspan>
<tspan x="10" y="442">  ├─┬ cookie-parser@1.4.3 </tspan>
<tspan x="10" y="458">  │ ├── cookie@0.3.1 </tspan>
<tspan x="10" y="474">  │ └── cookie-signature@1.0.6 </tspan>
<tspan x="10" y="490">  ├─┬ express-session@1.15.2 </tspan>
<tspan x="10" y="506">  │ ├── crc@3.4.4 </tspan>
<tspan x="10" y="522">  │ ├── debug@2.6.3 </tspan>
<tspan x="10" y="538">  │ ├── on-headers@1.0.1 </tspan>
<tspan x="10" y="554">  │ ├── parseurl@1.3.1 </tspan>
<tspan x="10" y="570">  │ ├─┬ uid-safe@2.1.4 </tspan>
<tspan x="10" y="586">  │ │ └── random-bytes@1.0.0 </tspan>
<tspan x="10" y="602">  │ └── utils-merge@1.0.0 </tspan>
<tspan x="10" y="618">  ├─┬ fb@1.1.1 </tspan>
<tspan x="10" y="634">  │ ├─┬ babel-runtime@6.23.0 </tspan>
<tspan x="10" y="650">  │ │ ├── core-js@2.4.1 </tspan>
<tspan x="10" y="666">  │ │ └── regenerator-runtime@0.10.3 </tspan>
<tspan x="10" y="682">  │ ├── core-decorators@0.12.3 </tspan>
<tspan x="10" y="698">  │ └─┬ request@2.81.0 </tspan>
<tspan x="10" y="714">  │   ├── aws-sign2@0.6.0 </tspan>
<tspan x="10" y="730">  │   ├── aws4@1.6.0 </tspan>
<tspan x="10" y="746">  │   ├── caseless@0.12.0 </tspan>
<tspan x="10" y="762">  │   ├─┬ combined-stream@1.0.5 </tspan>
<tspan x="10" y="778">  │   │ └── delayed-stream@1.0.0 </tspan>
<tspan x="10" y="794">  │   ├── extend@3.0.0 </tspan>
<tspan x="10" y="810">  │   ├── forever-agent@0.6.1 </tspan>
<tspan x="10" y="826">  │   ├─┬ form-data@2.1.4 </tspan>
<tspan x="10" y="842">  │   │ └── asynckit@0.4.0 </tspan>
<tspan x="10" y="858">  │   ├─┬ har-validator@4.2.1 </tspan>
<tspan x="10" y="874">  │   │ ├─┬ ajv@4.11.7 </tspan>
<tspan x="10" y="890">  │   │ │ ├── co@4.6.0 </tspan>
<tspan x="10" y="906">  │   │ │ └─┬ json-stable-stringify@1.0.1 </tspan>
<tspan x="10" y="922">  │   │ │   └── jsonify@0.0.0 </tspan>
<tspan x="10" y="938">  │   │ └── har-schema@1.0.5 </tspan>
<tspan x="10" y="954">  │   ├─┬ hawk@3.1.3 </tspan>
<tspan x="10" y="970">  │   │ ├── boom@2.10.1 </tspan>
<tspan x="10" y="986">  │   │ ├── cryptiles@2.0.5 </tspan>
<tspan x="10" y="1002">  │   │ ├── hoek@2.16.3 </tspan>
<tspan x="10" y="1018">  │   │ └── sntp@1.0.9 </tspan>
<tspan x="10" y="1034">  │   ├─┬ http-signature@1.1.1 </tspan>
<tspan x="10" y="1050">  │   │ ├── assert-plus@0.2.0 </tspan>
<tspan x="10" y="1066">  │   │ ├─┬ jsprim@1.4.0 </tspan>
<tspan x="10" y="1082">  │   │ │ ├── assert-plus@1.0.0 </tspan>
<tspan x="10" y="1098">  │   │ │ ├── extsprintf@1.0.2 </tspan>
<tspan x="10" y="1114">  │   │ │ ├── json-schema@0.2.3 </tspan>
<tspan x="10" y="1130">  │   │ │ └── verror@1.3.6 </tspan>
<tspan x="10" y="1146">  │   │ └─┬ sshpk@1.13.0 </tspan>
<tspan x="10" y="1162">  │   │   ├── asn1@0.2.3 </tspan>
<tspan x="10" y="1178">  │   │   ├── assert-plus@1.0.0 </tspan>
<tspan x="10" y="1194">  │   │   ├── bcrypt-pbkdf@1.0.1 </tspan>
<tspan x="10" y="1210">  │   │   ├─┬ dashdash@1.14.1 </tspan>
<tspan x="10" y="1226">  │   │   │ └── assert-plus@1.0.0 </tspan>
<tspan x="10" y="1242">  │   │   ├── ecc-jsbn@0.1.1 </tspan>
<tspan x="10" y="1258">  │   │   ├─┬ getpass@0.1.6 </tspan>
<tspan x="10" y="1274">  │   │   │ └── assert-plus@1.0.0 </tspan>
<tspan x="10" y="1290">  │   │   ├── jodid25519@1.0.2 </tspan>
<tspan x="10" y="1306">  │   │   ├── jsbn@0.1.1 </tspan>
<tspan x="10" y="1322">  │   │   └── tweetnacl@0.14.5 </tspan>
<tspan x="10" y="1338">  │   ├── is-typedarray@1.0.0 </tspan>
<tspan x="10" y="1354">  │   ├── isstream@0.1.2 </tspan>
<tspan x="10" y="1370">  │   ├── json-stringify-safe@5.0.1 </tspan>
<tspan x="10" y="1386">  │   ├── oauth-sign@0.8.2 </tspan>
<tspan x="10" y="1402">  │   ├── performance-now@0.2.0 </tspan>
<tspan x="10" y="1418">  │   ├── safe-buffer@5.0.1 </tspan>
<tspan x="10" y="1434">  │   ├── stringstream@0.0.5 </tspan>
<tspan x="10" y="1450">  │   ├─┬ tough-cookie@2.3.2 </tspan>
<tspan x="10" y="1466">  │   │ └── punycode@1.4.1 </tspan>
<tspan x="10" y="1482">  │   ├── tunnel-agent@0.6.0 </tspan>
<tspan x="10" y="1498">  │   └── uuid@3.0.1 </tspan>
<tspan x="10" y="1514">  ├─┬ mongodb@1.4.40 </tspan>
<tspan x="10" y="1530">  │ ├─┬ bson@0.2.22 </tspan>
<tspan x="10" y="1546">  │ │ └── nan@1.8.4 </tspan>
<tspan x="10" y="1562">  │ ├── kerberos@0.0.11 </tspan>
<tspan x="10" y="1578">  │ └─┬ readable-stream@2.2.9 </tspan>
<tspan x="10" y="1594">  │   ├── buffer-shims@1.0.0 </tspan>
<tspan x="10" y="1610">  │   ├── core-util-is@1.0.2 </tspan>
<tspan x="10" y="1626">  │   ├── isarray@1.0.0 </tspan>
<tspan x="10" y="1642">  │   ├── process-nextick-args@1.0.7 </tspan>
<tspan x="10" y="1658">  │   ├── string_decoder@1.0.0 </tspan>
<tspan x="10" y="1674">  │   └── util-deprecate@1.0.2 </tspan>
<tspan x="10" y="1690">  ├─┬ passport@0.3.2 </tspan>
<tspan x="10" y="1706">  │ ├── passport-strategy@1.0.0 </tspan>
<tspan x="10" y="1722">  │ └── pause@0.0.1 </tspan>
<tspan x="10" y="1738">  ├─┬ passport-facebook@2.1.1 </tspan>
<tspan x="10" y="1754">  │ └─┬ passport-oauth2@1.4.0 </tspan>
<tspan x="10" y="1770">  │   ├── oauth@0.9.15 </tspan>
<tspan x="10" y="1786">  │   └── uid2@0.0.3 </tspan>
<tspan x="10" y="1802">  ├── passport-http@0.3.0 </tspan>
<tspan x="10" y="1818">  ├── passport-local@1.0.0 </tspan>
<tspan x="10" y="1834">  ├─┬ passport-twitter@1.0.4 </tspan>
<tspan x="10" y="1850">  │ ├── passport-oauth1@1.1.0 </tspan>
<tspan x="10" y="1866">  │ └─┬ xtraverse@0.1.0 </tspan>
<tspan x="10" y="1882">  │   └── xmldom@0.1.27 </tspan>
<tspan x="10" y="1898">  └── underscore@1.8.3</tspan>
</text>
</svg>
